<svg version="1.1" viewBox="0.0 0.0 371.03412073490813 147.56167979002623" fill="none" stroke="none" stroke-linecap="square" stroke-miterlimit="10" xmlns:xlink="http://www.w3.org/1999/xlink" xmlns="http://www.w3.org/2000/svg"><clipPath id="p.0"><path d="m0 0l371.03412 0l0 147.56168l-371.03412 0l0 -147.56168z" clip-rule="nonzero"/></clipPath><g clip-path="url(#p.0)"><path fill="#000000" fill-opacity="0.0" d="m0 0l371.03412 0l0 147.56168l-371.03412 0z" fill-rule="evenodd"/><path fill="#b7b7b7" d="m26.358246 38.019188l0 71.25917l12.069321 0l0 -51.344948l8.168636 51.344948l11.980671 0l7.7000504 -51.344948l0 51.344948l12.221291 0l0 -71.25917l-20.541904 0l-5.5977325 43.473763l-5.6103973 -43.473763z" fill-rule="evenodd"/><path fill="#b7b7b7" d="m100.6792 58.675976c2.0178833 0 3.026825 2.1871872 3.026825 6.5615654l0 7.7901764l-6.4589233 0l0 -7.7901764c0 -4.374378 1.1440353 -6.5615654 3.4320984 -6.5615654zm0.15196991 -10.787434c-5.395096 0 -9.599731 1.4671249 -12.613892 4.4013786c-3.0057297 2.9342575 -4.508583 7.1916237 -4.508583 12.772106l0 24.396614c0 6.7955933 1.2706757 11.908028 3.812027 15.337326c2.5413513 3.4292984 6.745987 5.1439514 12.613899 5.1439514c6.273178 0 10.693108 -1.6696472 13.2597885 -5.008934c2.566681 -3.3482895 3.850029 -8.564247 3.850029 -15.647858l0 -3.4832993l-13.538414 0l0 5.886505c0 1.6651459 -0.037994385 2.9252625 -0.113983154 3.7803268c-0.07598114 0.85507965 -0.33771515 1.6156464 -0.785202 2.2817001c-0.4390335 0.6660614 -1.177803 0.9990845 -2.2162933 0.9990845c-1.3424454 0 -2.224739 -0.59404755 -2.6468964 -1.7821503c-0.41370392 -1.1881027 -0.6205597 -2.8352509 -0.6205597 -4.941429l0 -11.773018l19.769371 0c0.10131836 -2.7722397 0.15197754 -6.3680496 0.15197754 -10.787437l0 -4.4013824c0 -11.44899 -5.471092 -17.173485 -16.413269 -17.173485z" fill-rule="evenodd"/><path fill="#b7b7b7" d="m145.02122 47.888542c-2.743988 0 -4.871628 0.63905334 -6.3829346 1.9171638c-1.5028534 1.2691116 -2.5624542 3.2042809 -3.1788025 5.805504l0 -7.047611l-13.310448 0l0 60.71476l13.310448 0l0 -42.879715c0 -2.0521774 0.2828369 -3.8073273 0.848526 -5.265457c0.5741272 -1.4671249 1.561966 -2.2006874 2.963501 -2.2006874c1.0891571 0 1.802597 0.52654266 2.1403198 1.5796356c0.33772278 1.0440903 0.50657654 2.4257088 0.50657654 4.1448555l0 44.62137l13.614395 0l0 -43.63578c0 -1.8811607 0.28285217 -3.4968033 0.848526 -4.84692c0.5741272 -1.3591194 1.5113068 -2.0386772 2.8115387 -2.0386772c1.8659058 0 2.7988586 1.9666748 2.7988586 5.900009l0 44.62137l13.690384 0l0.15197754 -44.37834c0 -5.5264816 -0.8696289 -9.743347 -2.608902 -12.650597c-1.7308197 -2.9072533 -4.8294067 -4.360878 -9.295776 -4.360878c-2.4906921 0 -4.4368134 0.48604202 -5.8383636 1.4581261c-1.3930969 0.96308136 -2.6595612 2.497715 -3.7993622 4.603897c-0.67544556 -1.8811607 -1.8321381 -3.3617897 -3.4700928 -4.441883c-1.6295013 -1.0800934 -3.5629578 -1.6201401 -5.8003693 -1.6201401z" fill-rule="evenodd"/><path fill="#b7b7b7" d="m197.63168 58.675976c2.0178833 0 3.026825 2.1871872 3.026825 6.5615654l0 7.7901764l-6.4589233 0l0 -7.7901764c0 -4.374378 1.1440277 -6.5615654 3.4320984 -6.5615654zm0.15197754 -10.787434c-5.395096 0 -9.599731 1.4671249 -12.613907 4.4013786c-3.0057068 2.9342575 -4.5085754 7.1916237 -4.5085754 12.772106l0 24.396614c0 6.7955933 1.2706757 11.908028 3.812027 15.337326c2.5413666 3.4292984 6.745987 5.1439514 12.613907 5.1439514c6.273178 0 10.6931 -1.6696472 13.259781 -5.008934c2.566681 -3.3482895 3.8500214 -8.564247 3.8500214 -15.647858l0 -3.4832993l-13.538406 0l0 5.886505c0 1.6651459 -0.037994385 2.9252625 -0.113983154 3.7803268c-0.07598877 0.85507965 -0.33770752 1.6156464 -0.785202 2.2817001c-0.43902588 0.6660614 -1.1777954 0.9990845 -2.2162933 0.9990845c-1.3424377 0 -2.2247314 -0.59404755 -2.6468964 -1.7821503c-0.4136963 -1.1881027 -0.6205597 -2.8352509 -0.6205597 -4.941429l0 -11.773018l19.769379 0c0.10131836 -2.7722397 0.15196228 -6.3680496 0.15196228 -10.787437l0 -4.4013824c0 -11.44899 -5.4710846 -17.173485 -16.413254 -17.173485z" fill-rule="evenodd"/><path fill="#b7b7b7" d="m233.96971 50.96681c1.865921 0 3.1070404 0.6660576 3.7233887 1.9981728c0.6247864 1.3231125 0.93717957 3.4743004 0.93717957 6.45356c0 2.2141914 -0.11820984 3.9153366 -0.35461426 5.1034393c-0.22796631 1.1881027 -0.71765137 2.1016846 -1.4690857 2.740738c-0.7514343 0.63905334 -1.9334564 0.95858765 -3.5460815 0.95858765l-0.77253723 0l0 -17.254498zm-14.640213 -12.94762l0 71.25917l13.158463 0l0 -28.203941l5.445755 0c5.2346954 0 8.865189 -1.7956543 10.891525 -5.3869705c2.0263214 -3.6003113 3.0394897 -8.937775 3.0394897 -16.012386c0 -7.0836143 -1.1440277 -12.461578 -3.4320984 -16.133896c-2.2796173 -3.6813164 -6.0916443 -5.5219765 -11.436081 -5.5219765z" fill-rule="evenodd"/><path fill="#b7b7b7" d="m272.40622 59.094513c2.1276245 0 3.1914673 1.76865 3.1914673 5.3059616l0 29.702568c0 1.4311218 -0.26174927 2.5652237 -0.7852173 3.402298c-0.51501465 0.8280716 -1.3171082 1.2421036 -2.40625 1.2421036c-1.0891724 0 -1.8954773 -0.41403198 -2.4189453 -1.2421036c-0.51501465 -0.8370743 -0.772522 -1.9711761 -0.772522 -3.402298l0 -29.702568c0 -3.5373116 1.0638123 -5.3059616 3.1914673 -5.3059616zm0 -11.205971c-5.2937927 0 -9.460419 1.7011452 -12.499939 5.1034393c-3.0310364 3.402298 -4.54657 7.979191 -4.54657 13.73069l0 24.38311c0 12.556091 5.6821594 18.834137 17.046509 18.834137c11.3558655 0 17.033813 -6.2780457 17.033813 -18.834137l0 -24.38311c0 -5.751499 -1.5197449 -10.328392 -4.5592346 -13.73069c-3.031067 -3.4022942 -7.1892395 -5.1034393 -12.474579 -5.1034393z" fill-rule="evenodd"/><path fill="#b7b7b7" d="m311.07828 59.094513c2.1276245 0 3.1914673 1.76865 3.1914673 5.3059616l0 29.702568c0 1.4311218 -0.26174927 2.5652237 -0.7852173 3.402298c-0.51501465 0.8280716 -1.3171082 1.2421036 -2.40625 1.2421036c-1.0891724 0 -1.8954773 -0.41403198 -2.4189453 -1.2421036c-0.51501465 -0.8370743 -0.772522 -1.9711761 -0.772522 -3.402298l0 -29.702568c0 -3.5373116 1.0638123 -5.3059616 3.1914673 -5.3059616zm0 -11.205971c-5.2937927 0 -9.460419 1.7011452 -12.499939 5.1034393c-3.0310364 3.402298 -4.54657 7.979191 -4.54657 13.73069l0 24.38311c0 12.556091 5.68219 18.834137 17.046509 18.834137c11.3558655 0 17.033813 -6.2780457 17.033813 -18.834137l0 -24.38311c0 -5.751499 -1.5197449 -10.328392 -4.5592346 -13.73069c-3.0310364 -3.4022942 -7.1892395 -5.1034393 -12.474579 -5.1034393z" fill-rule="evenodd"/><path fill="#b7b7b7" d="m333.17242 37.61415l0 71.66421l13.855011 0l0 -71.66421z" fill-rule="evenodd"/><path stroke="#ffffff" stroke-width="1.0" stroke-linejoin="round" stroke-linecap="butt" d="m26.358246 38.019188l0 71.25917l12.069321 0l0 -51.344948l8.168636 51.344948l11.980671 0l7.7000504 -51.344948l0 51.344948l12.221291 0l0 -71.25917l-20.541904 0l-5.5977325 43.473763l-5.6103973 -43.473763z" fill-rule="evenodd"/><path stroke="#ffffff" stroke-width="1.0" stroke-linejoin="round" stroke-linecap="butt" d="m100.6792 58.675976c2.0178833 0 3.026825 2.1871872 3.026825 6.5615654l0 7.7901764l-6.4589233 0l0 -7.7901764c0 -4.374378 1.1440353 -6.5615654 3.4320984 -6.5615654zm0.15196991 -10.787434c-5.395096 0 -9.599731 1.4671249 -12.613892 4.4013786c-3.0057297 2.9342575 -4.508583 7.1916237 -4.508583 12.772106l0 24.396614c0 6.7955933 1.2706757 11.908028 3.812027 15.337326c2.5413513 3.4292984 6.745987 5.1439514 12.613899 5.1439514c6.273178 0 10.693108 -1.6696472 13.2597885 -5.008934c2.566681 -3.3482895 3.850029 -8.564247 3.850029 -15.647858l0 -3.4832993l-13.538414 0l0 5.886505c0 1.6651459 -0.037994385 2.9252625 -0.113983154 3.7803268c-0.07598114 0.85507965 -0.33771515 1.6156464 -0.785202 2.2817001c-0.4390335 0.6660614 -1.177803 0.9990845 -2.2162933 0.9990845c-1.3424454 0 -2.224739 -0.59404755 -2.6468964 -1.7821503c-0.41370392 -1.1881027 -0.6205597 -2.8352509 -0.6205597 -4.941429l0 -11.773018l19.769371 0c0.10131836 -2.7722397 0.15197754 -6.3680496 0.15197754 -10.787437l0 -4.4013824c0 -11.44899 -5.471092 -17.173485 -16.413269 -17.173485z" fill-rule="evenodd"/><path stroke="#ffffff" stroke-width="1.0" stroke-linejoin="round" stroke-linecap="butt" d="m145.02122 47.888542c-2.743988 0 -4.871628 0.63905334 -6.3829346 1.9171638c-1.5028534 1.2691116 -2.5624542 3.2042809 -3.1788025 5.805504l0 -7.047611l-13.310448 0l0 60.71476l13.310448 0l0 -42.879715c0 -2.0521774 0.2828369 -3.8073273 0.848526 -5.265457c0.5741272 -1.4671249 1.561966 -2.2006874 2.963501 -2.2006874c1.0891571 0 1.802597 0.52654266 2.1403198 1.5796356c0.33772278 1.0440903 0.50657654 2.4257088 0.50657654 4.1448555l0 44.62137l13.614395 0l0 -43.63578c0 -1.8811607 0.28285217 -3.4968033 0.848526 -4.84692c0.5741272 -1.3591194 1.5113068 -2.0386772 2.8115387 -2.0386772c1.8659058 0 2.7988586 1.9666748 2.7988586 5.900009l0 44.62137l13.690384 0l0.15197754 -44.37834c0 -5.5264816 -0.8696289 -9.743347 -2.608902 -12.650597c-1.7308197 -2.9072533 -4.8294067 -4.360878 -9.295776 -4.360878c-2.4906921 0 -4.4368134 0.48604202 -5.8383636 1.4581261c-1.3930969 0.96308136 -2.6595612 2.497715 -3.7993622 4.603897c-0.67544556 -1.8811607 -1.8321381 -3.3617897 -3.4700928 -4.441883c-1.6295013 -1.0800934 -3.5629578 -1.6201401 -5.8003693 -1.6201401z" fill-rule="evenodd"/><path stroke="#ffffff" stroke-width="1.0" stroke-linejoin="round" stroke-linecap="butt" d="m197.63168 58.675976c2.0178833 0 3.026825 2.1871872 3.026825 6.5615654l0 7.7901764l-6.4589233 0l0 -7.7901764c0 -4.374378 1.1440277 -6.5615654 3.4320984 -6.5615654zm0.15197754 -10.787434c-5.395096 0 -9.599731 1.4671249 -12.613907 4.4013786c-3.0057068 2.9342575 -4.5085754 7.1916237 -4.5085754 12.772106l0 24.396614c0 6.7955933 1.2706757 11.908028 3.812027 15.337326c2.5413666 3.4292984 6.745987 5.1439514 12.613907 5.1439514c6.273178 0 10.6931 -1.6696472 13.259781 -5.008934c2.566681 -3.3482895 3.8500214 -8.564247 3.8500214 -15.647858l0 -3.4832993l-13.538406 0l0 5.886505c0 1.6651459 -0.037994385 2.9252625 -0.113983154 3.7803268c-0.07598877 0.85507965 -0.33770752 1.6156464 -0.785202 2.2817001c-0.43902588 0.6660614 -1.1777954 0.9990845 -2.2162933 0.9990845c-1.3424377 0 -2.2247314 -0.59404755 -2.6468964 -1.7821503c-0.4136963 -1.1881027 -0.6205597 -2.8352509 -0.6205597 -4.941429l0 -11.773018l19.769379 0c0.10131836 -2.7722397 0.15196228 -6.3680496 0.15196228 -10.787437l0 -4.4013824c0 -11.44899 -5.4710846 -17.173485 -16.413254 -17.173485z" fill-rule="evenodd"/><path stroke="#ffffff" stroke-width="1.0" stroke-linejoin="round" stroke-linecap="butt" d="m233.96971 50.96681c1.865921 0 3.1070404 0.6660576 3.7233887 1.9981728c0.6247864 1.3231125 0.93717957 3.4743004 0.93717957 6.45356c0 2.2141914 -0.11820984 3.9153366 -0.35461426 5.1034393c-0.22796631 1.1881027 -0.71765137 2.1016846 -1.4690857 2.740738c-0.7514343 0.63905334 -1.9334564 0.95858765 -3.5460815 0.95858765l-0.77253723 0l0 -17.254498zm-14.640213 -12.94762l0 71.25917l13.158463 0l0 -28.203941l5.445755 0c5.2346954 0 8.865189 -1.7956543 10.891525 -5.3869705c2.0263214 -3.6003113 3.0394897 -8.937775 3.0394897 -16.012386c0 -7.0836143 -1.1440277 -12.461578 -3.4320984 -16.133896c-2.2796173 -3.6813164 -6.0916443 -5.5219765 -11.436081 -5.5219765z" fill-rule="evenodd"/><path stroke="#ffffff" stroke-width="1.0" stroke-linejoin="round" stroke-linecap="butt" d="m272.40622 59.094513c2.1276245 0 3.1914673 1.76865 3.1914673 5.3059616l0 29.702568c0 1.4311218 -0.26174927 2.5652237 -0.7852173 3.402298c-0.51501465 0.8280716 -1.3171082 1.2421036 -2.40625 1.2421036c-1.0891724 0 -1.8954773 -0.41403198 -2.4189453 -1.2421036c-0.51501465 -0.8370743 -0.772522 -1.9711761 -0.772522 -3.402298l0 -29.702568c0 -3.5373116 1.0638123 -5.3059616 3.1914673 -5.3059616zm0 -11.205971c-5.2937927 0 -9.460419 1.7011452 -12.499939 5.1034393c-3.0310364 3.402298 -4.54657 7.979191 -4.54657 13.73069l0 24.38311c0 12.556091 5.6821594 18.834137 17.046509 18.834137c11.3558655 0 17.033813 -6.2780457 17.033813 -18.834137l0 -24.38311c0 -5.751499 -1.5197449 -10.328392 -4.5592346 -13.73069c-3.031067 -3.4022942 -7.1892395 -5.1034393 -12.474579 -5.1034393z" fill-rule="evenodd"/><path stroke="#ffffff" stroke-width="1.0" stroke-linejoin="round" stroke-linecap="butt" d="m311.07828 59.094513c2.1276245 0 3.1914673 1.76865 3.1914673 5.3059616l0 29.702568c0 1.4311218 -0.26174927 2.5652237 -0.7852173 3.402298c-0.51501465 0.8280716 -1.3171082 1.2421036 -2.40625 1.2421036c-1.0891724 0 -1.8954773 -0.41403198 -2.4189453 -1.2421036c-0.51501465 -0.8370743 -0.772522 -1.9711761 -0.772522 -3.402298l0 -29.702568c0 -3.5373116 1.0638123 -5.3059616 3.1914673 -5.3059616zm0 -11.205971c-5.2937927 0 -9.460419 1.7011452 -12.499939 5.1034393c-3.0310364 3.402298 -4.54657 7.979191 -4.54657 13.73069l0 24.38311c0 12.556091 5.68219 18.834137 17.046509 18.834137c11.3558655 0 17.033813 -6.2780457 17.033813 -18.834137l0 -24.38311c0 -5.751499 -1.5197449 -10.328392 -4.5592346 -13.73069c-3.0310364 -3.4022942 -7.1892395 -5.1034393 -12.474579 -5.1034393z" fill-rule="evenodd"/><path stroke="#ffffff" stroke-width="1.0" stroke-linejoin="round" stroke-linecap="butt" d="m333.17242 37.61415l0 71.66421l13.855011 0l0 -71.66421z" fill-rule="evenodd"/><path fill="#666666" d="m24.01664 37.998882l0 67.69626l11.9507675 0l0 -48.77773l8.088402 48.77773l11.8629875 0l7.6244164 -48.77773l0 48.77773l12.10125 0l0 -67.69626l-20.340134 0l-5.5427475 41.300106l-5.55529 -41.300106z" fill-rule="evenodd"/><path fill="#666666" d="m97.60757 57.622845c1.9980698 0 2.9971008 2.0778313 2.9971008 6.233494l0 7.400673l-6.395485 0l0 -7.400673c0 -4.1556625 1.1327972 -6.233494 3.398384 -6.233494zm0.15048218 -10.24807c-5.342102 0 -9.50544 1.3937721 -12.489998 4.1813126c-2.9761963 2.7875443 -4.4642944 6.8320503 -4.4642944 12.133511l0 23.176796c0 6.455818 1.2582016 11.312637 3.7745895 14.570473c2.516388 3.2578354 6.679718 4.8867493 12.489998 4.8867493c6.2115555 0 10.588074 -1.5861588 13.1295395 -4.758484c2.5414734 -3.1808777 3.81221 -8.13604 3.81221 -14.8654785l0 -3.3091354l-13.405426 0l0 5.592186c0 1.5818939 -0.037620544 2.7789993 -0.11286163 3.5913162c-0.07524109 0.8123245 -0.334404 1.5348587 -0.7774887 2.1676102c-0.4347229 0.6327591 -1.1662369 0.9491348 -2.1945267 0.9491348c-1.3292618 0 -2.2028885 -0.5643463 -2.6208954 -1.6930466c-0.40964508 -1.1287003 -0.61447144 -2.693489 -0.61447144 -4.694359l0 -11.18438l19.575188 0c0.10031891 -2.6336288 0.15048218 -6.049652 0.15048218 -10.24807l0 -4.1813126c0 -10.876549 -5.417351 -16.314823 -16.252045 -16.314823z" fill-rule="evenodd"/><path fill="#666666" d="m141.51405 47.374775c-2.717041 0 -4.8237915 0.60710144 -6.3202515 1.8213081c-1.4880981 1.2056541 -2.5372925 3.0440674 -3.1475677 5.515232l0 -6.695236l-13.17971 0l0 57.679058l13.17971 0l0 -40.735756c0 -1.9495659 0.2800598 -3.6169624 0.84017944 -5.002182c0.5684967 -1.3937759 1.5466309 -2.09066 2.9344025 -2.09066c1.0784607 0 1.7848816 0.50022125 2.1192932 1.5006561c0.33439636 0.99188614 0.5016022 2.3044243 0.5016022 3.9376183l0 42.390324l13.480667 0l0 -41.454018c0 -1.7871017 0.2800598 -3.3219643 0.8401947 -4.604576c0.56848145 -1.2911606 1.49646 -1.9367409 2.783905 -1.9367409c1.8475952 0 2.7713776 1.8683357 2.7713776 5.605011l0 42.390324l13.555908 0l0.15048218 -42.15945c0 -5.25016 -0.861084 -9.256184 -2.5832672 -12.018074c-1.7138214 -2.7618942 -4.7819824 -4.1428375 -9.204483 -4.1428375c-2.466217 0 -4.3932343 0.4617386 -5.781006 1.3852196c-1.379425 0.91493225 -2.633438 2.3728333 -3.7620544 4.373707c-0.668808 -1.7871056 -1.8141327 -3.1937027 -3.4359894 -4.2197914c-1.6135101 -1.0260925 -3.5279694 -1.539135 -5.743393 -1.539135z" fill-rule="evenodd"/><path fill="#666666" d="m193.60773 57.622845c1.9980774 0 2.9971008 2.0778313 2.9971008 6.233494l0 7.400673l-6.3954773 0l0 -7.400673c0 -4.1556625 1.1327972 -6.233494 3.3983765 -6.233494zm0.15048218 -10.24807c-5.342102 0 -9.505432 1.3937721 -12.48999 4.1813126c-2.9761963 2.7875443 -4.4642944 6.8320503 -4.4642944 12.133511l0 23.176796c0 6.455818 1.258194 11.312637 3.774582 14.570473c2.516388 3.2578354 6.6797333 4.8867493 12.4900055 4.8867493c6.211548 0 10.588058 -1.5861588 13.129532 -4.758484c2.5414734 -3.1808777 3.81221 -8.13604 3.81221 -14.8654785l0 -3.3091354l-13.405426 0l0 5.592186c0 1.5818939 -0.037612915 2.7789993 -0.112854004 3.5913162c-0.07524109 0.8123245 -0.33441162 1.5348587 -0.77749634 2.1676102c-0.4347229 0.6327591 -1.1662292 0.9491348 -2.1945343 0.9491348c-1.3292542 0 -2.2028809 -0.5643463 -2.6208801 -1.6930466c-0.4096527 -1.1287003 -0.61447144 -2.693489 -0.61447144 -4.694359l0 -11.18438l19.57518 0c0.10032654 -2.6336288 0.15048218 -6.049652 0.15048218 -10.24807l0 -4.1813126c0 -10.876549 -5.417343 -16.314823 -16.252045 -16.314823z" fill-rule="evenodd"/><path fill="#666666" d="m229.58884 50.29913c1.84758 0 3.0765076 0.6327553 3.686798 1.8982658c0.61865234 1.256958 0.9279785 3.3005867 0.9279785 6.130886c0 2.1034813 -0.11705017 3.719574 -0.35112 4.8482704c-0.22572327 1.1287003 -0.71061707 1.9966049 -1.4546661 2.6037064c-0.7440491 0.60710144 -1.9144592 0.91065216 -3.5112457 0.91065216l-0.7649536 0l0 -16.39178zm-14.496429 -12.300247l0 67.69626l13.029221 0l0 -26.793762l5.392273 0c5.1832733 0 8.778107 -1.7058716 10.784531 -5.1176224c2.006424 -3.4202957 3.0096436 -8.4908905 3.0096436 -15.211777c0 -6.729439 -1.1327972 -11.838509 -3.3983765 -15.327213c-2.2572327 -3.4972534 -6.0318146 -5.24588 -11.323761 -5.24588z" fill-rule="evenodd"/><path fill="#666666" d="m267.64777 58.020454c2.1067505 0 3.1601257 1.6802216 3.1601257 5.0406647l0 28.21746c0 1.3595734 -0.25915527 2.436966 -0.77749634 3.2321854c-0.50994873 0.78666687 -1.3041687 1.1800003 -2.3826294 1.1800003c-1.0784302 0 -1.876831 -0.39333344 -2.3951416 -1.1800003c-0.50997925 -0.7952194 -0.7649536 -1.872612 -0.7649536 -3.2321854l0 -28.21746c0 -3.360443 1.0533752 -5.0406647 3.1600952 -5.0406647zm0 -10.645679c-5.2417603 0 -9.367493 1.6160889 -12.377121 4.848274c-3.0012817 3.2321815 -4.5019226 7.5802345 -4.5019226 13.044163l0 23.16397c0 11.928291 5.626358 17.892433 16.879044 17.892433c11.244354 0 16.866516 -5.964142 16.866516 -17.892433l0 -23.16397c0 -5.463928 -1.5048218 -9.811981 -4.514435 -13.044163c-3.0012817 -3.2321854 -7.1186523 -4.848274 -12.352081 -4.848274z" fill-rule="evenodd"/><path fill="#666666" d="m305.93997 58.020454c2.1067505 0 3.1601257 1.6802216 3.1601257 5.0406647l0 28.21746c0 1.3595734 -0.25915527 2.436966 -0.77749634 3.2321854c-0.50994873 0.78666687 -1.3041687 1.1800003 -2.3826294 1.1800003c-1.0784302 0 -1.876831 -0.39333344 -2.395172 -1.1800003c-0.50994873 -0.7952194 -0.7649536 -1.872612 -0.7649536 -3.2321854l0 -28.21746c0 -3.360443 1.0533752 -5.0406647 3.1601257 -5.0406647zm0 -10.645679c-5.241791 0 -9.367493 1.6160889 -12.377136 4.848274c-3.0012512 3.2321815 -4.501892 7.5802345 -4.501892 13.044163l0 23.16397c0 11.928291 5.626343 17.892433 16.879028 17.892433c11.244354 0 16.866516 -5.964142 16.866516 -17.892433l0 -23.16397c0 -5.463928 -1.5048218 -9.811981 -4.5144653 -13.044163c-3.0012512 -3.2321854 -7.118622 -4.848274 -12.352051 -4.848274z" fill-rule="evenodd"/><path fill="#666666" d="m327.8171 37.614098l0 68.08104l13.718933 0l0 -68.08104z" fill-rule="evenodd"/><path stroke="#ffffff" stroke-width="1.0" stroke-linejoin="round" stroke-linecap="butt" d="m24.01664 37.998882l0 67.69626l11.9507675 0l0 -48.77773l8.088402 48.77773l11.8629875 0l7.6244164 -48.77773l0 48.77773l12.10125 0l0 -67.69626l-20.340134 0l-5.5427475 41.300106l-5.55529 -41.300106z" fill-rule="evenodd"/><path stroke="#ffffff" stroke-width="1.0" stroke-linejoin="round" stroke-linecap="butt" d="m97.60757 57.622845c1.9980698 0 2.9971008 2.0778313 2.9971008 6.233494l0 7.400673l-6.395485 0l0 -7.400673c0 -4.1556625 1.1327972 -6.233494 3.398384 -6.233494zm0.15048218 -10.24807c-5.342102 0 -9.50544 1.3937721 -12.489998 4.1813126c-2.9761963 2.7875443 -4.4642944 6.8320503 -4.4642944 12.133511l0 23.176796c0 6.455818 1.2582016 11.312637 3.7745895 14.570473c2.516388 3.2578354 6.679718 4.8867493 12.489998 4.8867493c6.2115555 0 10.588074 -1.5861588 13.1295395 -4.758484c2.5414734 -3.1808777 3.81221 -8.13604 3.81221 -14.8654785l0 -3.3091354l-13.405426 0l0 5.592186c0 1.5818939 -0.037620544 2.7789993 -0.11286163 3.5913162c-0.07524109 0.8123245 -0.334404 1.5348587 -0.7774887 2.1676102c-0.4347229 0.6327591 -1.1662369 0.9491348 -2.1945267 0.9491348c-1.3292618 0 -2.2028885 -0.5643463 -2.6208954 -1.6930466c-0.40964508 -1.1287003 -0.61447144 -2.693489 -0.61447144 -4.694359l0 -11.18438l19.575188 0c0.10031891 -2.6336288 0.15048218 -6.049652 0.15048218 -10.24807l0 -4.1813126c0 -10.876549 -5.417351 -16.314823 -16.252045 -16.314823z" fill-rule="evenodd"/><path stroke="#ffffff" stroke-width="1.0" stroke-linejoin="round" stroke-linecap="butt" d="m141.51405 47.374775c-2.717041 0 -4.8237915 0.60710144 -6.3202515 1.8213081c-1.4880981 1.2056541 -2.5372925 3.0440674 -3.1475677 5.515232l0 -6.695236l-13.17971 0l0 57.679058l13.17971 0l0 -40.735756c0 -1.9495659 0.2800598 -3.6169624 0.84017944 -5.002182c0.5684967 -1.3937759 1.5466309 -2.09066 2.9344025 -2.09066c1.0784607 0 1.7848816 0.50022125 2.1192932 1.5006561c0.33439636 0.99188614 0.5016022 2.3044243 0.5016022 3.9376183l0 42.390324l13.480667 0l0 -41.454018c0 -1.7871017 0.2800598 -3.3219643 0.8401947 -4.604576c0.56848145 -1.2911606 1.49646 -1.9367409 2.783905 -1.9367409c1.8475952 0 2.7713776 1.8683357 2.7713776 5.605011l0 42.390324l13.555908 0l0.15048218 -42.15945c0 -5.25016 -0.861084 -9.256184 -2.5832672 -12.018074c-1.7138214 -2.7618942 -4.7819824 -4.1428375 -9.204483 -4.1428375c-2.466217 0 -4.3932343 0.4617386 -5.781006 1.3852196c-1.379425 0.91493225 -2.633438 2.3728333 -3.7620544 4.373707c-0.668808 -1.7871056 -1.8141327 -3.1937027 -3.4359894 -4.2197914c-1.6135101 -1.0260925 -3.5279694 -1.539135 -5.743393 -1.539135z" fill-rule="evenodd"/><path stroke="#ffffff" stroke-width="1.0" stroke-linejoin="round" stroke-linecap="butt" d="m193.60773 57.622845c1.9980774 0 2.9971008 2.0778313 2.9971008 6.233494l0 7.400673l-6.3954773 0l0 -7.400673c0 -4.1556625 1.1327972 -6.233494 3.3983765 -6.233494zm0.15048218 -10.24807c-5.342102 0 -9.505432 1.3937721 -12.48999 4.1813126c-2.9761963 2.7875443 -4.4642944 6.8320503 -4.4642944 12.133511l0 23.176796c0 6.455818 1.258194 11.312637 3.774582 14.570473c2.516388 3.2578354 6.6797333 4.8867493 12.4900055 4.8867493c6.211548 0 10.588058 -1.5861588 13.129532 -4.758484c2.5414734 -3.1808777 3.81221 -8.13604 3.81221 -14.8654785l0 -3.3091354l-13.405426 0l0 5.592186c0 1.5818939 -0.037612915 2.7789993 -0.112854004 3.5913162c-0.07524109 0.8123245 -0.33441162 1.5348587 -0.77749634 2.1676102c-0.4347229 0.6327591 -1.1662292 0.9491348 -2.1945343 0.9491348c-1.3292542 0 -2.2028809 -0.5643463 -2.6208801 -1.6930466c-0.4096527 -1.1287003 -0.61447144 -2.693489 -0.61447144 -4.694359l0 -11.18438l19.57518 0c0.10032654 -2.6336288 0.15048218 -6.049652 0.15048218 -10.24807l0 -4.1813126c0 -10.876549 -5.417343 -16.314823 -16.252045 -16.314823z" fill-rule="evenodd"/><path stroke="#ffffff" stroke-width="1.0" stroke-linejoin="round" stroke-linecap="butt" d="m229.58884 50.29913c1.84758 0 3.0765076 0.6327553 3.686798 1.8982658c0.61865234 1.256958 0.9279785 3.3005867 0.9279785 6.130886c0 2.1034813 -0.11705017 3.719574 -0.35112 4.8482704c-0.22572327 1.1287003 -0.71061707 1.9966049 -1.4546661 2.6037064c-0.7440491 0.60710144 -1.9144592 0.91065216 -3.5112457 0.91065216l-0.7649536 0l0 -16.39178zm-14.496429 -12.300247l0 67.69626l13.029221 0l0 -26.793762l5.392273 0c5.1832733 0 8.778107 -1.7058716 10.784531 -5.1176224c2.006424 -3.4202957 3.0096436 -8.4908905 3.0096436 -15.211777c0 -6.729439 -1.1327972 -11.838509 -3.3983765 -15.327213c-2.2572327 -3.4972534 -6.0318146 -5.24588 -11.323761 -5.24588z" fill-rule="evenodd"/><path stroke="#ffffff" stroke-width="1.0" stroke-linejoin="round" stroke-linecap="butt" d="m267.64777 58.020454c2.1067505 0 3.1601257 1.6802216 3.1601257 5.0406647l0 28.21746c0 1.3595734 -0.25915527 2.436966 -0.77749634 3.2321854c-0.50994873 0.78666687 -1.3041687 1.1800003 -2.3826294 1.1800003c-1.0784302 0 -1.876831 -0.39333344 -2.3951416 -1.1800003c-0.50997925 -0.7952194 -0.7649536 -1.872612 -0.7649536 -3.2321854l0 -28.21746c0 -3.360443 1.0533752 -5.0406647 3.1600952 -5.0406647zm0 -10.645679c-5.2417603 0 -9.367493 1.6160889 -12.377121 4.848274c-3.0012817 3.2321815 -4.5019226 7.5802345 -4.5019226 13.044163l0 23.16397c0 11.928291 5.626358 17.892433 16.879044 17.892433c11.244354 0 16.866516 -5.964142 16.866516 -17.892433l0 -23.16397c0 -5.463928 -1.5048218 -9.811981 -4.514435 -13.044163c-3.0012817 -3.2321854 -7.1186523 -4.848274 -12.352081 -4.848274z" fill-rule="evenodd"/><path stroke="#ffffff" stroke-width="1.0" stroke-linejoin="round" stroke-linecap="butt" d="m305.93997 58.020454c2.1067505 0 3.1601257 1.6802216 3.1601257 5.0406647l0 28.21746c0 1.3595734 -0.25915527 2.436966 -0.77749634 3.2321854c-0.50994873 0.78666687 -1.3041687 1.1800003 -2.3826294 1.1800003c-1.0784302 0 -1.876831 -0.39333344 -2.395172 -1.1800003c-0.50994873 -0.7952194 -0.7649536 -1.872612 -0.7649536 -3.2321854l0 -28.21746c0 -3.360443 1.0533752 -5.0406647 3.1601257 -5.0406647zm0 -10.645679c-5.241791 0 -9.367493 1.6160889 -12.377136 4.848274c-3.0012512 3.2321815 -4.501892 7.5802345 -4.501892 13.044163l0 23.16397c0 11.928291 5.626343 17.892433 16.879028 17.892433c11.244354 0 16.866516 -5.964142 16.866516 -17.892433l0 -23.16397c0 -5.463928 -1.5048218 -9.811981 -4.5144653 -13.044163c-3.0012512 -3.2321854 -7.118622 -4.848274 -12.352051 -4.848274z" fill-rule="evenodd"/><path stroke="#ffffff" stroke-width="1.0" stroke-linejoin="round" stroke-linecap="butt" d="m327.8171 37.614098l0 68.08104l13.718933 0l0 -68.08104z" fill-rule="evenodd"/></g></svg>